<!DOCTYPE svg PUBLIC "-//W3C//DTD SVG 1.1//EN" "http://www.w3.org/Graphics/SVG/1.1/DTD/svg11.dtd">
<svg version="1.1" id="Layer_1" xmlns="http://www.w3.org/2000/svg" xmlns:xlink="http://www.w3.org/1999/xlink" x="0px" y="0px"
	 width="521.87px" height="130.705px" viewBox="0 0 521.87 130.705" enable-background="new 0 0 521.87 130.705"
	 xml:space="preserve">
<path fill="#197BB6" d="M71.227,33.992c0,0-4.339-8.58-9.506,0.497c0,0,0.167,30.751,0.167,47.584c0,4.582-2.096,8-4,10.25
	c-5.5,6.498-9.667,7.416-15.5,8.083c-4.438,0.508-8.461-1.028-11.594-2.929c1.23-0.434,2.632-0.979,4.257-1.668
	c0,0,11.801-7.464,5.962-26.654c-1.167-3.833-7.712,2.832-7.712,2.832s1.333-1.385,1-5.898c-0.333-4.514,0.75-15.513-5.333-22.097
	s2-8.667,2.417-8.75S42.134,34.587,46.717,21c0,0-2.5,1.753-4,0s3.833-11.086,0.333-15.503c0,0-4.583,0.417-8.5,5
	c0,0-1.493-2.66-11.997-2.33c0,0-1.5-7.313-7.167-8.167c0,0-3,6.342-5,11.342c0,0-1.75,2.749-7.917,1.749
	c0,0-0.004,10.814,5.417,16.742C8.761,30.788,7.554,35,7.554,35l-3.003,7c0,0-6.75,17.32,0,29.987c0,0-2.374-1.274-3.584,0
	c-1.336,1.407-3.163,18.836,8.92,27.418c1.618,1.148,5.937,1.244,8.08,0.488c0,0,17.629,21.096,42.379,4.096
	c0,0,5.733-4.797,8.875-12.499c2.583-6.333,1.808-11.886,2.125-18.376L71.227,33.992z"/>
<g>
	<g>
		<path fill="#C8763A" d="M106.974,91.469c0,2.208-0.451,4.021-1.352,5.436c-0.902,1.416-2.078,2.545-3.528,3.384
			c-1.451,0.841-3.1,1.428-4.948,1.765c-1.848,0.335-3.684,0.504-5.508,0.504c-0.769,0-1.884-0.061-3.348-0.18
			c-1.465-0.121-2.928-0.373-4.392-0.757c-1.464-0.384-2.736-0.911-3.816-1.584c-1.08-0.671-1.62-1.584-1.62-2.735
			c0-0.672,0.239-1.308,0.72-1.908c0.479-0.6,1.08-0.9,1.8-0.9c0.479,0,0.983,0.072,1.512,0.217c0.911,0.24,1.703,0.492,2.376,0.756
			c0.672,0.264,1.32,0.504,1.944,0.719c0.624,0.217,1.308,0.385,2.052,0.505c0.744,0.12,1.667,0.18,2.772,0.18
			c0.911,0,1.896-0.071,2.952-0.216c1.055-0.145,2.04-0.396,2.952-0.756c0.912-0.36,1.68-0.875,2.304-1.549
			c0.623-0.671,0.936-1.535,0.936-2.592c0-1.151-0.324-2.075-0.972-2.771c-0.648-0.695-1.452-1.248-2.412-1.656
			c-0.96-0.407-2.004-0.684-3.132-0.828c-1.128-0.144-2.196-0.264-3.204-0.359c-1.728-0.145-3.42-0.408-5.076-0.793
			c-1.656-0.383-3.121-0.971-4.392-1.764c-1.272-0.791-2.293-1.848-3.06-3.168c-0.769-1.319-1.152-3.012-1.152-5.076
			c0-1.871,0.432-3.479,1.296-4.824c0.864-1.343,1.991-2.436,3.384-3.275c1.392-0.839,2.94-1.463,4.644-1.872
			c1.704-0.407,3.348-0.612,4.932-0.612c1.152,0,2.387,0.133,3.708,0.396c1.32,0.264,2.592,0.66,3.816,1.188
			c1.224,0.529,2.328,1.224,3.312,2.087c0.983,0.865,1.692,1.897,2.124,3.097c0.191,0.385,0.288,0.864,0.288,1.44
			c0,0.816-0.265,1.439-0.792,1.871c-0.529,0.432-1.177,0.648-1.944,0.648c-0.625,0-1.105-0.132-1.44-0.396
			c-0.336-0.263-0.648-0.587-0.936-0.972c-0.288-0.384-0.601-0.792-0.936-1.224c-0.336-0.432-0.805-0.84-1.404-1.225
			c-0.601-0.383-1.356-0.695-2.268-0.936c-0.912-0.24-2.088-0.36-3.528-0.36c-0.72,0-1.548,0.072-2.484,0.216
			c-0.936,0.145-1.813,0.396-2.628,0.756c-0.817,0.36-1.512,0.865-2.088,1.513c-0.576,0.647-0.864,1.452-0.864,2.411
			c0,1.105,0.263,1.98,0.79,2.629c0.527,0.648,1.196,1.164,2.009,1.548c0.813,0.385,1.723,0.66,2.728,0.828
			c1.005,0.169,1.986,0.276,2.943,0.323c1.722,0.145,3.468,0.409,5.239,0.793c1.771,0.385,3.374,0.972,4.81,1.764
			s2.608,1.861,3.517,3.204C106.518,87.702,106.974,89.406,106.974,91.469z"/>
		<path fill="#C8763A" d="M147.149,99.676c0,0.865-0.336,1.609-1.008,2.232c-0.673,0.623-1.393,0.936-2.16,0.936
			c-1.105,0-1.908-0.276-2.412-0.828s-0.876-1.043-1.116-1.475c-0.432,0.24-1.008,0.479-1.728,0.719
			c-0.72,0.24-1.453,0.456-2.196,0.648c-0.745,0.191-1.488,0.348-2.232,0.469c-0.745,0.119-1.357,0.18-1.836,0.18
			c-2.641,0-5.112-0.421-7.416-1.26c-2.304-0.84-4.309-2.076-6.012-3.709c-1.704-1.631-3.048-3.623-4.032-5.976
			c-0.984-2.351-1.476-5.04-1.476-8.063c0.047-2.736,0.563-5.256,1.548-7.561c0.983-2.305,2.315-4.284,3.996-5.939
			c1.68-1.656,3.672-2.939,5.976-3.853c2.304-0.911,4.775-1.368,7.416-1.368c0.959,0,2.076,0.157,3.348,0.468
			c1.271,0.313,2.268,0.66,2.988,1.044c0.191-0.479,0.504-0.875,0.936-1.188c0.432-0.312,1.055-0.468,1.872-0.468
			c1.919,0,2.88,1.08,2.88,3.24v20.953c0,1.248,0.108,2.531,0.324,3.852c0.216,1.32,0.563,2.437,1.044,3.348
			c0.335,0.673,0.635,1.296,0.9,1.872C147.017,98.525,147.149,99.1,147.149,99.676z M138.797,95.285
			c-0.192-0.671-0.324-1.355-0.396-2.052c-0.072-0.695-0.108-1.235-0.108-1.62v-19.44c-0.769-0.432-1.705-0.803-2.808-1.115
			c-1.104-0.313-2.113-0.469-3.024-0.469c-1.872,0-3.589,0.324-5.148,0.973c-1.561,0.648-2.905,1.548-4.032,2.699
			c-1.128,1.152-2.004,2.521-2.628,4.104c-0.625,1.584-0.936,3.312-0.936,5.185c0,1.871,0.312,3.611,0.936,5.219
			c0.624,1.609,1.5,3.014,2.628,4.213c1.127,1.2,2.472,2.148,4.032,2.844c1.559,0.696,3.276,1.044,5.148,1.044
			c1.152,0,2.304-0.18,3.456-0.54C137.069,95.969,138.029,95.622,138.797,95.285z"/>
		<path fill="#C8763A" d="M189.845,83.621c0,2.833-0.41,5.4-1.228,7.704c-0.819,2.305-1.986,4.284-3.501,5.939
			c-1.517,1.656-3.345,2.941-5.485,3.853c-2.142,0.911-4.56,1.368-7.255,1.368c-1.829-0.049-3.682-0.18-5.559-0.396
			c-1.876-0.216-3.609-0.852-5.196-1.908c-0.333,1.152-0.772,1.824-1.316,2.017c-0.545,0.191-1.103,0.288-1.672,0.288
			c-1.992,0-2.988-1.127-2.988-3.385V48.197c0-0.911,0.308-1.667,0.925-2.268c0.616-0.6,1.352-0.9,2.207-0.9
			c0.901,0,1.637,0.3,2.206,0.9c0.569,0.601,0.854,1.357,0.854,2.268v45.576c1.348,1.104,2.95,1.872,4.804,2.304
			s3.552,0.648,5.093,0.648c1.926,0,3.612-0.384,5.057-1.152c1.444-0.768,2.649-1.764,3.612-2.988
			c0.963-1.224,1.697-2.604,2.203-4.14c0.506-1.536,0.76-3.097,0.76-4.681c0-1.728-0.241-3.371-0.72-4.932
			c-0.48-1.559-1.152-2.951-2.016-4.176c-0.864-1.225-1.896-2.195-3.096-2.916c-1.201-0.72-2.473-1.08-3.816-1.08
			c-0.48,0-0.864,0.025-1.152,0.072c-0.288,0.049-0.552,0.084-0.792,0.107c-0.241,0.025-0.48,0.061-0.72,0.108
			c-0.241,0.048-0.529,0.072-0.864,0.072c-0.72,0.048-1.357-0.204-1.908-0.757c-0.553-0.551-0.828-1.211-0.828-1.979
			c0-1.584,0.563-2.556,1.692-2.916c1.127-0.36,2.556-0.54,4.284-0.54c2.304,0,4.452,0.432,6.444,1.296
			c1.991,0.864,3.731,2.112,5.22,3.744c1.487,1.632,2.651,3.601,3.492,5.904C189.424,78.077,189.845,80.694,189.845,83.621z"/>
		<path fill="#C8763A" d="M207.124,52.877c0,1.249-0.428,2.292-1.286,3.132c-0.857,0.84-1.905,1.26-3.142,1.26
			c-1.239,0-2.286-0.419-3.144-1.26c-0.857-0.839-1.285-1.883-1.285-3.132c0-1.248,0.428-2.304,1.285-3.168
			c0.857-0.864,1.905-1.296,3.144-1.296c1.237,0,2.285,0.432,3.142,1.296C206.695,50.573,207.124,51.629,207.124,52.877z
			 M206.26,68.357v30.239c0,1.057-0.313,1.969-0.936,2.736c-0.625,0.768-1.512,1.152-2.664,1.152c-1.104,0-1.957-0.385-2.556-1.152
			c-0.601-0.768-0.9-1.68-0.9-2.736V68.357c0-0.96,0.36-1.775,1.08-2.448c0.72-0.671,1.512-1.008,2.376-1.008
			c0.959,0,1.8,0.336,2.52,1.008C205.9,66.582,206.26,67.397,206.26,68.357z"/>
		<path fill="#C8763A" d="M227.715,97.084c0.432,0.625,0.671,1.26,0.72,1.908c0.047,0.648-0.061,1.225-0.324,1.729
			c-0.265,0.504-0.648,0.924-1.152,1.26c-0.504,0.335-1.044,0.504-1.62,0.504c-1.105,0-1.957-0.313-2.556-0.936
			c-0.601-0.624-1.236-1.369-1.908-2.232c-0.529-0.768-1.056-2.004-1.584-3.708c-0.529-1.703-0.792-3.876-0.792-6.517V48.485
			c0-0.959,0.324-1.775,0.972-2.448c0.648-0.671,1.451-1.008,2.412-1.008c0.959,0,1.751,0.336,2.376,1.008
			c0.623,0.673,0.936,1.489,0.936,2.448v39.384c0,2.401,0.288,4.356,0.864,5.868C226.635,95.249,227.187,96.365,227.715,97.084z"/>
		<path fill="#C8763A" d="M246.65,52.877c0,1.249-0.429,2.292-1.286,3.132c-0.856,0.84-1.904,1.26-3.142,1.26
			c-1.238,0-2.286-0.419-3.144-1.26c-0.857-0.839-1.285-1.883-1.285-3.132c0-1.248,0.428-2.304,1.285-3.168
			c0.857-0.864,1.905-1.296,3.144-1.296c1.237,0,2.285,0.432,3.142,1.296C246.222,50.573,246.65,51.629,246.65,52.877z
			 M245.786,68.357v30.239c0,1.057-0.313,1.969-0.936,2.736c-0.624,0.768-1.512,1.152-2.664,1.152c-1.104,0-1.956-0.385-2.556-1.152
			c-0.601-0.768-0.9-1.68-0.9-2.736V68.357c0-0.96,0.36-1.775,1.08-2.448c0.72-0.671,1.512-1.008,2.376-1.008
			c0.96,0,1.8,0.336,2.521,1.008C245.427,66.582,245.786,67.397,245.786,68.357z"/>
		<path fill="#C8763A" d="M277.97,99.245c0,0.816-0.288,1.549-0.864,2.196s-1.345,0.972-2.304,0.972h-2.16
			c-1.969,0-3.672-0.336-5.112-1.008c-1.439-0.672-2.628-1.572-3.563-2.7c-0.937-1.127-1.646-2.411-2.124-3.852
			c-0.48-1.44-0.721-2.952-0.721-4.536V70.516h-3.312c-1.008,0-1.849-0.275-2.521-0.827s-1.008-1.235-1.008-2.052
			c0-0.768,0.336-1.44,1.008-2.017c0.672-0.576,1.513-0.864,2.521-0.864h3.312v-9c0-0.959,0.313-1.775,0.937-2.448
			c0.623-0.671,1.343-1.008,2.16-1.008c0.863,0,1.607,0.336,2.231,1.008c0.624,0.673,0.937,1.489,0.937,2.448v9h7.056
			c1.008,0,1.848,0.288,2.521,0.864c0.671,0.576,1.008,1.249,1.008,2.017c0,0.816-0.337,1.488-1.008,2.016
			c-0.673,0.529-1.513,0.792-2.521,0.792h-7.128v18.937c0,2.16,0.479,3.9,1.44,5.219c0.959,1.321,2.566,2.029,4.823,2.125h1.225
			c0.815,0.048,1.548,0.313,2.195,0.791C277.646,97.997,277.97,98.573,277.97,99.245z"/>
		<path fill="#C8763A" d="M316.561,68.069v38.88c0,2.735-0.467,4.979-1.4,6.731s-2.143,3.133-3.626,4.141
			c-1.484,1.008-3.146,1.703-4.989,2.088c-1.843,0.384-3.697,0.576-5.563,0.576c-1.724,0-3.137-0.036-4.236-0.107
			c-1.101-0.072-2.058-0.17-2.871-0.289c-0.814-0.12-1.532-0.276-2.156-0.468c-0.623-0.192-1.293-0.408-2.014-0.647
			c-1.008-0.48-1.608-1.141-1.8-1.98c-0.192-0.84-0.192-1.524,0-2.052c0.24-0.576,0.685-1.044,1.332-1.404
			c0.648-0.36,1.379-0.421,2.196-0.18c0.623,0.239,1.343,0.442,2.16,0.612c0.815,0.167,1.631,0.311,2.447,0.432
			c0.816,0.119,1.596,0.203,2.341,0.252c0.743,0.047,1.355,0.072,1.836,0.072c2.159,0,3.898-0.252,5.22-0.756
			c1.319-0.504,2.352-1.116,3.096-1.836c0.744-0.721,1.235-1.513,1.477-2.377c0.239-0.863,0.359-1.68,0.359-2.447v-3.024v-4.823
			c-0.576,0.575-1.272,1.068-2.088,1.476c-0.816,0.408-1.632,0.731-2.448,0.972s-1.608,0.42-2.376,0.54
			c-0.768,0.119-1.367,0.181-1.8,0.181c-2.304,0-4.477-0.277-6.516-0.828c-2.041-0.552-3.828-1.513-5.364-2.881
			c-1.537-1.367-2.748-3.24-3.636-5.615c-0.889-2.377-1.332-5.364-1.332-8.965V67.853c0-0.96,0.312-1.728,0.936-2.304
			s1.344-0.864,2.16-0.864c0.864,0,1.596,0.288,2.196,0.864c0.6,0.576,0.899,1.344,0.899,2.304v14.688
			c0,1.871,0.181,3.695,0.54,5.471c0.36,1.777,0.947,3.349,1.765,4.717c0.815,1.367,1.872,2.46,3.168,3.275
			c1.296,0.817,2.88,1.225,4.752,1.225c0.623,0,1.319-0.061,2.088-0.18c0.768-0.119,1.56-0.313,2.376-0.576
			c0.815-0.264,1.631-0.623,2.448-1.08c0.815-0.456,1.559-1.02,2.231-1.692V68.069c0-0.959,0.332-1.764,0.996-2.412
			s1.399-0.972,2.207-0.972c0.806,0,1.505,0.324,2.1,0.972C316.264,66.305,316.561,67.11,316.561,68.069z"/>
		<path fill="#C8763A" d="M399.284,101.205c-0.867,0.933-1.967,1.366-3.3,1.3c-1.334-0.066-2.5-0.566-3.5-1.5l-32-29.699v26.899
			c0,1.335-0.463,2.45-1.386,3.351c-0.924,0.899-2.046,1.35-3.364,1.35h-0.099c-1.32,0-2.425-0.45-3.315-1.35
			c-0.891-0.9-1.336-2.016-1.336-3.351v-31.1c-1.467-0.933-2.2-2.266-2.2-4c0-1.666,0.733-3,2.2-4v-31.2
			c0-1.333,0.445-2.45,1.336-3.35s1.995-1.35,3.315-1.35h0.099c1.318,0,2.44,0.45,3.364,1.35c0.923,0.9,1.386,2.017,1.386,3.35v25.8
			l29.8-28.9c1-0.933,2.216-1.433,3.65-1.5c1.433-0.065,2.55,0.334,3.35,1.2c0.866,0.934,1.216,2.1,1.05,3.5
			c-0.167,1.4-0.717,2.567-1.649,3.5l-32,31l34.3,32.1c1,0.935,1.533,2.034,1.6,3.3C400.65,99.172,400.217,100.272,399.284,101.205z
			"/>
		<path fill="#C8763A" d="M418.696,52.877c0,1.249-0.429,2.292-1.286,3.132c-0.857,0.84-1.904,1.26-3.143,1.26
			s-2.285-0.419-3.143-1.26c-0.857-0.839-1.285-1.883-1.285-3.132c0-1.248,0.428-2.304,1.285-3.168
			c0.857-0.864,1.904-1.296,3.143-1.296s2.285,0.432,3.143,1.296C418.268,50.573,418.696,51.629,418.696,52.877z M417.832,68.357
			v30.239c0,1.057-0.313,1.969-0.937,2.736s-1.512,1.152-2.663,1.152c-1.105,0-1.957-0.385-2.557-1.152
			c-0.601-0.768-0.899-1.68-0.899-2.736V68.357c0-0.96,0.359-1.775,1.08-2.448c0.72-0.671,1.512-1.008,2.376-1.008
			c0.959,0,1.8,0.336,2.52,1.008C417.472,66.582,417.832,67.397,417.832,68.357z"/>
		<path fill="#C8763A" d="M450.015,99.245c0,0.816-0.288,1.549-0.864,2.196s-1.345,0.972-2.304,0.972h-2.16
			c-1.969,0-3.672-0.336-5.112-1.008c-1.439-0.672-2.628-1.572-3.563-2.7c-0.937-1.127-1.646-2.411-2.124-3.852
			c-0.48-1.44-0.721-2.952-0.721-4.536V70.516h-3.312c-1.008,0-1.849-0.275-2.521-0.827s-1.008-1.235-1.008-2.052
			c0-0.768,0.336-1.44,1.008-2.017c0.672-0.576,1.513-0.864,2.521-0.864h3.312v-9c0-0.959,0.313-1.775,0.937-2.448
			c0.623-0.671,1.343-1.008,2.16-1.008c0.863,0,1.607,0.336,2.231,1.008c0.624,0.673,0.937,1.489,0.937,2.448v9h7.056
			c1.008,0,1.848,0.288,2.521,0.864c0.671,0.576,1.008,1.249,1.008,2.017c0,0.816-0.337,1.488-1.008,2.016
			c-0.673,0.529-1.513,0.792-2.521,0.792h-7.128v18.937c0,2.16,0.479,3.9,1.44,5.219c0.959,1.321,2.566,2.029,4.823,2.125h1.225
			c0.815,0.048,1.548,0.313,2.195,0.791C449.69,97.997,450.015,98.573,450.015,99.245z"/>
		<path fill="#C8763A" d="M478.311,99.245c0,0.816-0.288,1.549-0.864,2.196s-1.345,0.972-2.304,0.972h-2.16
			c-1.969,0-3.672-0.336-5.112-1.008c-1.439-0.672-2.628-1.572-3.563-2.7c-0.937-1.127-1.646-2.411-2.124-3.852
			c-0.48-1.44-0.721-2.952-0.721-4.536V70.516h-3.312c-1.008,0-1.849-0.275-2.521-0.827s-1.008-1.235-1.008-2.052
			c0-0.768,0.336-1.44,1.008-2.017c0.672-0.576,1.513-0.864,2.521-0.864h3.312v-9c0-0.959,0.313-1.775,0.937-2.448
			c0.623-0.671,1.343-1.008,2.16-1.008c0.863,0,1.607,0.336,2.231,1.008c0.624,0.673,0.937,1.489,0.937,2.448v9h7.056
			c1.008,0,1.848,0.288,2.521,0.864c0.671,0.576,1.008,1.249,1.008,2.017c0,0.816-0.337,1.488-1.008,2.016
			c-0.673,0.529-1.513,0.792-2.521,0.792h-7.128v18.937c0,2.16,0.479,3.9,1.44,5.219c0.959,1.321,2.566,2.029,4.823,2.125h1.225
			c0.815,0.048,1.548,0.313,2.195,0.791C477.986,97.997,478.311,98.573,478.311,99.245z"/>
		<path fill="#C8763A" d="M516.901,68.069v38.88c0,2.735-0.467,4.979-1.4,6.731s-2.143,3.133-3.626,4.141
			c-1.484,1.008-3.146,1.703-4.989,2.088c-1.843,0.384-3.697,0.576-5.563,0.576c-1.724,0-3.137-0.036-4.236-0.107
			c-1.101-0.072-2.058-0.17-2.871-0.289c-0.814-0.12-1.532-0.276-2.156-0.468c-0.623-0.192-1.293-0.408-2.014-0.647
			c-1.008-0.48-1.608-1.141-1.8-1.98c-0.192-0.84-0.192-1.524,0-2.052c0.24-0.576,0.685-1.044,1.332-1.404
			c0.648-0.36,1.379-0.421,2.196-0.18c0.623,0.239,1.343,0.442,2.16,0.612c0.815,0.167,1.631,0.311,2.447,0.432
			c0.816,0.119,1.596,0.203,2.341,0.252c0.743,0.047,1.355,0.072,1.836,0.072c2.159,0,3.898-0.252,5.22-0.756
			c1.319-0.504,2.352-1.116,3.096-1.836c0.744-0.721,1.235-1.513,1.477-2.377c0.239-0.863,0.359-1.68,0.359-2.447v-3.024v-4.823
			c-0.576,0.575-1.272,1.068-2.088,1.476c-0.816,0.408-1.632,0.731-2.448,0.972s-1.608,0.42-2.376,0.54
			c-0.768,0.119-1.367,0.181-1.8,0.181c-2.304,0-4.477-0.277-6.516-0.828c-2.041-0.552-3.828-1.513-5.364-2.881
			c-1.537-1.367-2.748-3.24-3.636-5.615c-0.889-2.377-1.332-5.364-1.332-8.965V67.853c0-0.96,0.312-1.728,0.936-2.304
			s1.344-0.864,2.16-0.864c0.864,0,1.596,0.288,2.196,0.864c0.6,0.576,0.899,1.344,0.899,2.304v14.688
			c0,1.871,0.181,3.695,0.54,5.471c0.36,1.777,0.947,3.349,1.765,4.717c0.815,1.367,1.872,2.46,3.168,3.275
			c1.296,0.817,2.88,1.225,4.752,1.225c0.623,0,1.319-0.061,2.088-0.18c0.768-0.119,1.56-0.313,2.376-0.576
			c0.815-0.264,1.631-0.623,2.448-1.08c0.815-0.456,1.559-1.02,2.231-1.692V68.069c0-0.959,0.332-1.764,0.996-2.412
			s1.399-0.972,2.207-0.972c0.806,0,1.505,0.324,2.1,0.972C516.604,66.305,516.901,67.11,516.901,68.069z"/>
	</g>
</g>
</svg>